<?xml version="1.0" standalone="no"?>
<!DOCTYPE svg PUBLIC "-//W3C//DTD SVG 20010904//EN"
 "http://www.w3.org/TR/2001/REC-SVG-20010904/DTD/svg10.dtd">
<svg version="1.0" xmlns="http://www.w3.org/2000/svg"
 width="512.000000pt" height="512.000000pt" viewBox="0 0 512.000000 512.000000"
 preserveAspectRatio="xMidYMid meet">
<metadata>
Created by potrace 1.14, written by Peter Selinger 2001-2017
</metadata>
<g transform="translate(0.000000,512.000000) scale(0.100000,-0.100000)"
fill="#000000" stroke="none">
<path d="M3845 4284 c-14 -15 -15 -19 -2 -31 21 -22 59 -8 55 20 -4 28 -31 33
-53 11z"/>
<path d="M3336 4114 c-9 -24 12 -44 48 -44 34 0 74 19 46 21 -8 1 -19 1 -24 0
-5 -1 -16 4 -25 12 -29 25 -39 27 -45 11z"/>
<path d="M3711 4069 c-6 -18 -11 -37 -10 -43 0 -6 7 7 15 28 8 22 12 41 10 43
-2 2 -9 -10 -15 -28z"/>
<path d="M3581 3997 c-16 -16 -14 -23 12 -34 31 -14 49 -6 37 17 -12 23 -35
31 -49 17z"/>
<path d="M3838 3972 c-30 -14 -38 -42 -13 -42 20 0 54 35 46 47 -3 5 -18 3
-33 -5z"/>
<path d="M4220 3889 c0 -5 5 -7 10 -4 6 3 10 8 10 11 0 2 -4 4 -10 4 -5 0 -10
-5 -10 -11z"/>
<path d="M4600 3880 c-8 -5 -43 -19 -77 -31 -35 -11 -63 -24 -63 -29 0 -5 -9
-11 -19 -15 -23 -7 -33 -39 -18 -54 17 -17 30 -13 67 21 39 36 61 52 103 70
15 7 27 20 27 30 0 21 0 21 -20 8z"/>
<path d="M4019 3834 c-10 -12 -9 -18 4 -31 13 -13 19 -14 31 -3 21 17 20 27
-3 39 -14 8 -22 7 -32 -5z"/>
<path d="M3656 3771 c-4 -7 -5 -15 -2 -18 9 -9 19 4 14 18 -4 11 -6 11 -12 0z"/>
<path d="M3915 3769 c6 -9 3 -11 -8 -6 -10 3 -17 2 -17 -3 0 -6 -9 -10 -19
-10 -25 0 -36 -16 -16 -24 8 -3 15 0 15 6 0 6 3 8 6 5 4 -4 1 -14 -6 -23 -12
-13 -11 -17 1 -25 8 -5 19 -9 25 -9 7 0 14 -7 18 -15 3 -8 11 -13 18 -11 7 3
25 7 39 10 16 4 26 12 26 23 0 40 3 43 42 43 22 0 42 4 45 9 9 14 -4 19 -32
11 -15 -4 -38 -3 -52 3 -14 5 -30 11 -36 12 -6 2 -22 6 -34 10 -17 5 -21 4
-15 -6z"/>
<path d="M3190 3749 c0 -5 5 -7 10 -4 6 3 10 8 10 11 0 2 -4 4 -10 4 -5 0 -10
-5 -10 -11z"/>
<path d="M4175 3740 c-3 -5 -1 -10 4 -10 6 0 11 5 11 10 0 6 -2 10 -4 10 -3 0
-8 -4 -11 -10z"/>
<path d="M3390 3730 c0 -5 5 -10 11 -10 5 0 7 5 4 10 -3 6 -8 10 -11 10 -2 0
-4 -4 -4 -10z"/>
<path d="M4020 3711 c0 -5 10 -15 22 -23 21 -14 21 -16 5 -38 -9 -14 -17 -19
-17 -12 0 10 -5 10 -20 2 -11 -6 -18 -15 -15 -20 3 -4 -7 -13 -22 -18 -16 -6
-22 -11 -14 -11 8 -1 19 -8 25 -17 17 -22 46 -7 46 23 0 21 3 23 14 14 8 -7
13 -25 11 -46 -3 -30 -1 -35 18 -35 26 0 50 14 45 25 -1 5 12 13 30 17 29 8
31 10 17 24 -18 18 -18 24 -4 61 5 15 7 24 3 20 -4 -4 -14 -1 -22 6 -12 9 -16
9 -19 0 -3 -7 -9 -13 -14 -13 -6 0 -7 5 -4 10 3 6 -1 10 -10 10 -12 0 -15 -5
-11 -17 4 -10 -5 -3 -19 15 -26 31 -45 41 -45 23z"/>
<path d="M3462 3689 c-14 -22 -7 -25 14 -5 8 8 11 17 6 20 -4 2 -13 -4 -20
-15z"/>
<path d="M3283 3665 c-10 -10 -9 -16 3 -26 19 -16 30 -4 18 20 -7 16 -11 17
-21 6z"/>
<path d="M4203 3663 c-20 -7 -15 -32 5 -29 9 2 16 6 15 10 -5 19 -9 23 -20 19z"/>
<path d="M2506 3635 c-10 -13 -23 -22 -29 -18 -6 4 -7 1 -2 -7 6 -10 3 -12
-13 -8 -28 8 -72 -25 -52 -37 9 -6 11 -4 5 5 -6 10 -4 12 9 7 9 -4 14 -3 11 2
-3 5 -2 12 3 15 14 8 10 -28 -5 -42 -7 -7 -13 -11 -13 -7 0 3 -9 1 -19 -5 -17
-8 -19 -7 -16 15 2 25 2 25 -17 9 -12 -12 -15 -21 -8 -28 14 -14 12 -26 -5
-26 -8 0 -15 -4 -15 -10 0 -5 -7 -6 -17 -3 -11 4 -14 3 -9 -5 4 -7 1 -13 -6
-14 -7 0 -20 -2 -28 -2 -8 -1 -14 -7 -13 -14 3 -10 -19 -17 -31 -9 -2 1 -13
-6 -24 -16 -12 -11 -26 -16 -33 -11 -7 4 -10 3 -6 -3 4 -6 1 -13 -7 -16 -9 -4
-12 0 -9 13 5 17 2 17 -33 5 -21 -7 -40 -18 -42 -24 -2 -6 -12 -11 -23 -11
-10 0 -19 -6 -19 -12 0 -10 -3 -9 -9 1 -7 11 -11 9 -20 -8 -7 -11 -19 -21 -27
-21 -8 0 -12 -4 -9 -10 3 -5 1 -10 -6 -10 -13 0 -127 -118 -161 -167 -13 -18
-33 -38 -45 -44 -12 -7 -20 -16 -17 -21 3 -4 1 -8 -5 -8 -5 0 -12 6 -14 13 -4
10 -6 10 -6 0 -1 -7 -12 -13 -25 -13 -14 0 -33 -10 -43 -23 -19 -23 -63 -29
-110 -13 -12 4 -24 3 -27 -3 -8 -12 -43 -3 -49 13 -8 20 74 18 97 -2 19 -17
19 -17 1 10 -14 23 -24 28 -56 26 -22 -1 -42 2 -47 6 -4 5 2 7 13 6 11 -1 22
-1 25 0 3 1 20 3 38 4 26 1 32 -2 32 -18 0 -11 3 -16 6 -13 4 3 15 2 25 -4 13
-6 19 -6 19 1 0 5 -7 10 -15 10 -8 0 -15 6 -15 14 0 20 27 14 45 -10 13 -16
14 -16 9 -1 -5 14 0 17 30 17 20 0 36 4 36 8 0 7 -22 11 -81 15 -14 1 -34 8
-43 16 -9 8 -19 11 -23 7 -3 -3 -1 -6 5 -6 7 0 12 -5 12 -10 0 -7 -7 -7 -20 0
-12 7 -18 16 -13 23 4 7 0 6 -10 -2 -10 -8 -20 -11 -24 -7 -3 3 -2 6 4 6 5 0
10 6 10 14 0 12 -4 12 -23 0 -13 -9 -25 -11 -28 -6 -3 6 1 13 10 16 12 5 14
10 5 20 -6 7 -7 17 -3 22 4 4 -2 2 -13 -6 -11 -8 -27 -23 -36 -33 -13 -16 -33
-20 -120 -24 -57 -2 -113 -5 -124 -7 -11 -2 -30 1 -42 5 -14 5 -23 5 -23 -1 0
-6 -8 -10 -19 -10 -10 0 -30 -9 -43 -20 -14 -10 -29 -16 -33 -12 -5 4 -5 2 -1
-5 3 -6 -1 -16 -10 -21 -10 -6 -15 -16 -11 -25 3 -9 0 -18 -8 -21 -17 -6 -30
10 -15 19 22 14 8 23 -32 21 -24 -1 -54 1 -67 6 -15 6 -28 5 -35 -2 -8 -8 -5
-9 9 -5 16 6 17 5 5 -4 -11 -7 -20 -5 -35 8 -11 10 -27 19 -35 19 -8 1 -38 4
-67 7 -34 3 -56 1 -65 -7 -7 -7 -39 -26 -71 -43 -47 -25 -54 -32 -42 -41 8 -6
15 -19 15 -28 0 -16 7 -19 43 -19 19 0 23 -12 7 -22 -5 -3 -10 -1 -10 6 0 8
-5 7 -17 -3 -10 -8 -26 -18 -36 -21 -9 -4 -17 -11 -17 -17 0 -11 17 -14 66
-11 20 1 34 -4 38 -14 3 -8 4 -15 3 -15 -1 -1 -20 -3 -42 -7 -22 -3 -51 -10
-65 -16 -24 -9 -22 -11 30 -27 30 -10 49 -18 42 -19 -24 -2 -85 -31 -79 -38 4
-3 19 -7 34 -8 49 -3 52 -5 47 -20 -4 -8 -10 -13 -14 -10 -4 3 -13 -2 -20 -10
-7 -8 -20 -15 -29 -16 -9 0 -11 -3 -4 -5 7 -3 9 -12 6 -20 -3 -8 1 -14 8 -14
11 0 11 -2 -1 -10 -13 -8 -12 -11 4 -23 18 -13 18 -14 -8 -21 -15 -4 -24 -11
-21 -17 5 -7 12 -6 21 2 22 18 17 2 -6 -19 -20 -18 -20 -19 12 -15 31 4 32 3
14 -11 -17 -14 -17 -16 -3 -16 25 0 11 -23 -24 -39 -24 -10 -27 -16 -18 -27 6
-8 15 -12 19 -9 5 3 16 2 25 -2 14 -5 11 -9 -16 -24 -23 -12 -28 -18 -16 -19
10 0 27 5 37 10 16 8 18 8 14 -5 -3 -8 -10 -12 -15 -9 -5 3 -9 0 -9 -5 0 -14
13 -14 28 1 9 9 12 9 12 0 0 -7 8 -12 17 -12 27 0 8 -11 -37 -21 -53 -12 -77
-34 -60 -54 7 -8 10 -24 7 -35 -3 -11 -2 -18 2 -16 4 3 13 1 21 -5 12 -7 12
-9 -3 -9 -10 0 -15 -4 -12 -10 4 -6 -1 -7 -11 -3 -12 4 -15 3 -10 -5 4 -7 2
-12 -4 -12 -6 0 -9 -4 -5 -10 3 -5 21 -7 40 -5 19 3 35 1 35 -5 0 -5 15 -3 34
5 19 8 65 20 103 26 60 10 69 14 70 33 1 11 -1 15 -4 9 -3 -7 -9 -13 -14 -13
-6 0 -7 5 -3 11 5 8 -9 10 -50 6 -31 -3 -56 -1 -56 4 0 5 8 9 19 9 10 0 38 7
61 15 23 8 55 16 70 17 16 1 26 6 24 10 -3 4 -1 8 5 8 5 0 13 -5 16 -10 4 -6
11 -8 16 -5 11 7 12 26 2 24 -19 -3 -27 2 -14 10 8 5 -8 7 -40 5 -40 -2 -48
-1 -31 6 12 5 30 7 40 4 16 -5 16 -5 -1 6 -9 6 -21 9 -26 6 -5 -3 -14 1 -21 9
-7 8 -16 12 -21 9 -14 -8 -88 -10 -83 -2 3 5 -3 8 -13 9 -16 0 -16 1 2 9 11 4
55 18 98 30 119 34 165 33 151 -3 -3 -9 -18 -18 -33 -18 -23 -2 -24 -2 -3 -6
23 -5 30 -19 11 -25 -15 -5 -3 -78 13 -78 5 0 8 -7 5 -14 -4 -10 -1 -13 7 -10
21 8 28 -12 9 -27 -14 -12 -16 -12 -8 0 5 10 4 12 -3 7 -24 -14 -12 -29 18
-23 16 4 32 3 34 -2 3 -5 29 -8 57 -7 28 1 53 -2 55 -6 3 -5 0 -8 -5 -8 -6 0
-11 -9 -11 -20 0 -11 5 -20 11 -20 5 0 7 6 3 13 -5 8 -2 8 9 -2 13 -10 17 -10
17 -1 0 10 3 10 15 0 8 -7 15 -23 15 -36 0 -28 18 -41 26 -20 3 9 11 13 16 10
6 -4 5 3 -2 16 -11 20 -10 21 10 10 15 -8 20 -18 17 -31 -3 -12 0 -22 9 -26 8
-3 11 -10 8 -15 -5 -7 4 -9 24 -6 17 2 29 1 26 -4 -3 -4 -1 -8 5 -8 5 0 15 8
21 18 10 16 10 15 8 -3 -2 -23 22 -65 38 -65 11 0 51 39 47 46 -8 12 0 32 23
59 l26 30 -21 -36 c-24 -42 -26 -53 -8 -43 9 6 9 4 1 -7 -8 -9 -9 -30 -4 -59
4 -25 8 -38 9 -30 2 19 41 -25 41 -46 0 -8 5 -14 10 -14 6 0 8 11 6 25 -3 14
0 25 6 25 6 0 9 3 5 6 -6 6 29 84 42 94 4 3 15 18 25 34 11 18 21 25 27 19 8
-8 -30 -81 -68 -128 -13 -16 -15 -65 -2 -65 6 0 8 -7 5 -16 -3 -9 -2 -12 5 -8
6 3 9 15 6 25 -3 11 -1 16 5 13 5 -3 12 3 15 15 3 12 9 21 14 21 5 0 9 5 9 11
0 6 6 16 13 23 17 17 47 27 47 16 0 -6 -4 -10 -10 -10 -5 0 -10 -7 -10 -15 0
-8 -3 -15 -7 -15 -5 0 -16 -14 -25 -30 -25 -43 -3 -37 26 8 13 20 34 46 47 57
13 11 18 13 12 5 -7 -8 -13 -22 -13 -31 0 -9 -7 -22 -15 -29 -17 -14 -45 -67
-45 -84 1 -6 7 0 15 14 7 14 19 25 26 25 6 0 20 15 30 34 21 40 36 57 44 49 3
-3 -2 -13 -11 -22 -9 -9 -14 -20 -10 -23 3 -4 14 4 24 16 9 13 27 32 39 44 12
11 34 37 49 59 28 40 54 50 54 21 0 -15 2 -16 10 -3 5 8 12 11 16 8 4 -4 27
10 52 32 24 22 48 37 53 34 5 -3 9 0 9 5 0 6 7 11 15 11 8 0 15 4 15 9 0 5 7
11 15 15 8 3 14 2 14 -2 -4 -27 3 -72 10 -67 5 3 7 21 4 41 -4 25 -2 39 8 45
26 16 39 10 39 -21 0 -16 -4 -30 -10 -30 -18 0 -11 -17 12 -27 l22 -9 -22 -22
c-12 -12 -17 -22 -11 -22 5 0 7 -5 3 -11 -4 -7 -15 -1 -29 17 -15 19 -24 24
-29 15 -5 -7 -2 -10 6 -9 7 2 11 -4 9 -12 -2 -8 -4 -21 -4 -27 0 -16 -13 -17
-23 -2 -3 6 0 15 7 20 11 7 11 9 -3 9 -9 0 -19 -6 -21 -12 -4 -10 -10 18 -9
42 0 3 -6 10 -13 17 -10 9 -12 3 -9 -30 1 -23 3 -48 3 -56 1 -8 7 -11 17 -7
13 5 15 2 11 -14 -6 -24 8 -27 21 -4 6 11 11 13 16 5 11 -17 24 -13 31 10 7
20 7 20 22 2 8 -10 11 -12 7 -4 -5 11 -3 13 9 8 10 -4 17 -2 17 5 0 7 5 6 15
-2 13 -11 15 -8 15 14 0 14 -4 26 -9 26 -9 0 -34 60 -28 66 2 2 12 1 23 -2 16
-4 21 -14 22 -45 1 -24 9 -46 22 -59 11 -11 20 -28 20 -37 0 -26 10 -9 15 26
2 17 0 31 -5 31 -5 0 -7 6 -4 14 3 8 1 17 -4 20 -5 3 -7 17 -5 31 4 19 11 24
29 23 13 -1 24 -8 24 -15 0 -7 5 -13 11 -13 5 0 8 4 5 9 -8 12 12 18 49 15 17
-1 46 -3 65 -4 51 -3 62 -1 55 10 -3 6 -1 10 4 10 6 0 11 -4 11 -9 0 -5 9 -11
19 -14 23 -6 35 15 18 32 -17 17 1 13 22 -6 11 -9 18 -21 15 -27 -3 -6 2 -2
10 8 13 16 16 17 16 4 0 -9 7 -19 16 -22 9 -3 12 -11 8 -18 -5 -8 -1 -8 10 1
12 10 20 11 24 4 4 -6 14 -13 22 -15 19 -4 40 -24 40 -38 0 -6 5 -8 13 -4 7 5
6 0 -3 -11 -12 -15 -12 -17 -1 -10 11 6 13 4 8 -8 -4 -11 -2 -14 7 -11 9 3 12
14 8 27 -5 18 -3 19 10 7 8 -8 14 -24 14 -35 -1 -11 5 -26 14 -33 9 -8 10 -11
1 -6 -10 5 -11 1 -6 -16 6 -17 4 -21 -6 -14 -12 6 -12 5 0 -9 12 -15 11 -17
-3 -17 -14 0 -21 11 -17 33 0 4 -4 7 -10 7 -7 0 -8 -7 -4 -18 4 -9 8 -33 10
-52 4 -51 3 -50 22 -50 9 0 13 3 10 7 -10 9 14 34 26 26 6 -4 7 -1 2 7 -11 17
-11 112 0 129 5 10 4 12 -3 7 -14 -9 -15 4 -2 24 9 13 10 13 10 0 0 -8 6 -22
13 -31 10 -13 12 -8 12 31 0 27 -3 46 -7 43 -5 -2 -8 -1 -9 4 -1 15 -7 48 -13
73 -5 23 -3 25 34 26 22 0 40 -3 40 -8 0 -4 3 -7 8 -5 4 1 7 -3 7 -8 0 -6 -3
-9 -7 -8 -8 3 -12 -15 -8 -32 2 -5 2 -21 1 -34 -1 -24 -1 -24 13 -6 13 19 15
18 24 -15 6 -19 11 -28 11 -20 1 8 -3 30 -8 48 -6 18 -6 30 -1 27 4 -3 14 14
22 37 12 39 16 43 46 44 17 0 32 -4 32 -9 0 -5 -7 -6 -16 -3 -8 3 -12 2 -9 -4
3 -5 16 -8 28 -6 12 1 36 0 54 -5 20 -4 36 -3 40 4 4 6 1 7 -7 2 -9 -5 -11 -4
-6 4 11 17 29 2 23 -20 -3 -10 0 -22 5 -26 6 -3 8 -2 5 3 -3 6 -2 16 4 24 7
12 9 12 9 1 0 -11 3 -11 15 -1 8 6 18 9 23 6 10 -6 35 18 27 25 -2 3 5 5 15 6
28 2 25 -5 -16 -42 -25 -23 -32 -35 -23 -40 8 -5 10 -4 5 3 -6 11 6 16 27 13
4 0 7 3 7 8 0 5 9 11 21 14 12 3 19 9 16 14 -3 4 6 9 19 9 13 1 22 -2 19 -6
-3 -5 4 -6 16 -3 18 5 20 3 14 -18 -4 -16 -3 -20 3 -10 7 9 12 10 16 2 11 -17
46 -13 46 5 0 10 6 14 15 10 9 -3 15 0 15 10 0 8 5 12 10 9 6 -3 10 -1 10 5 0
7 6 10 14 7 7 -3 19 0 25 6 8 8 11 8 11 -1 0 -7 -13 -18 -28 -25 -16 -7 -27
-18 -25 -24 3 -7 -2 -13 -11 -13 -8 0 -17 -4 -20 -9 -4 -5 0 -8 6 -6 37 9 58
18 58 25 0 4 8 11 18 14 9 3 -3 -12 -26 -34 -33 -31 -39 -40 -25 -40 11 0 25
6 32 13 11 10 13 8 8 -11 l-5 -23 36 23 c37 22 50 31 127 89 31 24 46 29 70
25 16 -4 32 -11 33 -16 5 -13 32 -13 32 1 0 5 -6 7 -12 3 -7 -4 -10 -3 -6 1 5
5 20 10 34 11 25 3 25 2 8 -11 -17 -12 -17 -16 -5 -36 12 -20 11 -24 -4 -35
-9 -7 -15 -19 -12 -26 4 -10 6 -9 6 2 1 10 6 7 17 -9 l17 -23 24 28 c13 16 22
23 18 17 -4 -8 1 -13 14 -13 13 0 18 -6 16 -17 -3 -24 6 -38 15 -23 4 7 15 10
25 7 9 -4 14 -11 10 -16 -3 -6 -13 -7 -22 -4 -11 4 -14 3 -9 -5 4 -8 2 -10 -7
-6 -8 3 -17 -2 -21 -11 -7 -20 0 -35 19 -35 7 0 16 -7 19 -16 3 -8 10 -13 15
-10 4 3 7 -6 5 -19 -1 -14 2 -22 7 -19 5 3 20 -4 32 -15 12 -11 33 -30 47 -41
14 -12 19 -19 13 -15 -7 3 -13 1 -13 -5 0 -7 7 -9 16 -6 8 3 25 1 36 -5 24
-13 40 -1 15 12 -9 6 -17 17 -17 25 0 9 10 4 30 -16 30 -31 52 -42 30 -15 -7
8 -8 15 -3 15 5 0 9 9 9 19 0 13 -4 17 -11 11 -6 -5 -10 0 -11 14 -1 12 -11
33 -22 46 -12 14 -36 45 -54 69 -18 24 -41 49 -51 55 -27 16 -87 76 -87 88 0
5 -4 6 -10 3 -5 -3 -10 -1 -10 4 0 8 -7 7 -20 -1 -14 -9 -16 -14 -7 -20 8 -5
7 -8 -5 -8 -22 0 -24 18 -3 26 8 4 15 10 15 16 0 5 -4 7 -9 4 -5 -4 -12 0 -14
6 -4 10 -6 10 -6 1 -1 -7 -8 -13 -17 -13 -14 0 -14 2 0 22 20 28 20 35 1 35
-8 0 -11 -5 -8 -11 3 -6 -7 1 -23 16 -22 21 -33 25 -41 17 -6 -6 -9 -17 -6
-25 3 -8 -3 -12 -16 -11 -18 1 -19 3 -6 17 8 9 12 20 8 23 -3 4 -1 7 6 7 7 0
20 7 28 16 13 13 17 13 24 2 7 -10 9 -10 9 2 0 12 2 12 9 1 6 -10 13 -10 29
-2 11 6 28 8 36 5 9 -3 16 -1 16 6 0 7 -13 11 -32 10 -18 -1 -43 -2 -56 -1
-21 1 -22 2 -8 17 9 8 20 12 26 9 5 -3 10 -1 10 5 0 7 6 8 18 2 9 -5 26 -7 37
-5 11 2 44 4 73 4 35 0 51 3 46 10 -4 8 -1 8 13 0 11 -6 23 -7 27 -4 9 9 46
11 41 2 -3 -4 2 -9 9 -12 10 -4 14 1 13 14 -1 15 -9 19 -42 20 -22 1 -43 1
-46 1 -100 -11 -144 -11 -157 0 -13 10 -14 10 -8 1 4 -7 3 -13 -3 -13 -17 0
-24 22 -10 31 8 5 10 9 4 9 -5 0 -1 6 10 13 11 8 35 13 52 11 18 -1 31 2 28 6
-3 4 7 16 21 25 18 11 24 12 18 4 -6 -12 -5 -12 8 -1 9 7 19 9 22 4 7 -12 99
-3 108 11 6 9 8 9 8 0 0 -7 9 -13 21 -13 11 0 17 5 14 10 -6 9 8 14 28 11 4 0
7 5 7 13 0 10 -7 13 -20 11 -32 -6 -21 26 15 45 31 17 58 15 34 -2 -11 -8 -11
-9 -1 -6 8 2 13 7 12 12 -1 5 4 13 12 18 10 8 9 9 -4 5 -9 -3 -22 1 -30 10
-12 15 -10 16 17 10 l30 -7 -27 15 c-33 18 -28 50 6 39 19 -6 20 -5 6 12 -14
18 -14 18 2 5 10 -7 16 -17 13 -21 -3 -5 0 -12 6 -16 7 -4 9 -3 5 4 -3 6 -2
13 3 17 12 7 -16 38 -42 48 -25 9 -21 37 11 70 l27 28 -28 -10 c-18 -7 -26 -7
-22 -1 3 6 1 11 -4 11 -26 3 -30 4 -35 10 -4 3 9 5 29 4 19 -1 36 2 36 7 2 12
6 28 9 31 4 5 11 43 11 59 0 11 6 15 16 11 11 -4 14 -2 9 5 -4 7 -1 12 8 12 9
0 16 7 16 16 0 8 -4 12 -10 9 -5 -3 -10 -1 -10 4 0 6 8 11 18 11 9 0 23 9 30
20 14 24 1 27 -44 10 -27 -11 -64 -5 -64 10 0 4 8 7 18 6 26 -4 66 16 50 25
-7 4 -18 3 -25 -3 -7 -6 -13 -7 -13 -4 0 4 -10 1 -22 -6 -13 -7 -30 -12 -39
-13 -8 0 -23 -8 -33 -17 -23 -23 -42 -23 -42 0 0 10 6 19 14 19 7 0 11 -7 7
-16 -4 -14 -4 -14 8 0 7 9 36 29 65 44 66 34 78 51 17 25 -25 -11 -47 -20 -50
-20 -3 0 -6 0 -7 -1 -18 -5 -46 -11 -60 -12 -9 -1 -15 -4 -12 -8 2 -4 -9 -10
-26 -14 -16 -4 -30 -11 -30 -16 0 -14 -28 -11 -33 4 -3 7 -6 4 -6 -6 -1 -11
-6 -15 -12 -11 -18 11 -53 11 -61 -1 -5 -6 -8 -3 -8 7 0 11 -7 16 -20 15 -11
-1 -20 -5 -20 -10 0 -5 7 -7 15 -3 8 3 15 0 15 -5 0 -6 -9 -9 -20 -6 -11 3
-20 0 -20 -6 0 -8 -3 -7 -9 1 -4 8 -12 13 -17 13 -5 -1 -10 4 -10 9 -3 21 -4
22 -19 10 -8 -7 -15 -18 -15 -24 0 -7 4 -6 9 2 6 11 10 10 15 -4 4 -10 4 -15
0 -12 -4 4 -15 3 -25 -3 -15 -7 -17 -6 -13 5 7 19 -6 43 -15 27 -10 -15 -51
-2 -44 15 3 8 1 14 -5 14 -5 0 -13 -8 -17 -17 -6 -16 -8 -16 -25 5 l-19 23
-13 -20 c-8 -13 -23 -21 -38 -20 l-25 1 24 7 c32 9 41 32 10 26 -27 -5 -68 20
-46 28 8 3 20 1 26 -4 7 -6 8 -5 2 2 -5 6 -7 19 -3 28 5 14 3 14 -12 -1 -23
-24 -29 -23 -21 3 5 15 4 19 -4 15 -6 -4 -11 -2 -11 3 0 6 6 11 14 11 8 0 18
10 21 21 6 18 13 20 44 16 l36 -5 -30 13 c-25 11 -27 15 -12 20 9 4 17 15 17
26 0 19 34 44 60 44 8 0 14 3 13 8 -2 4 -3 9 -3 12 0 3 -9 1 -20 -5 -17 -9
-20 -8 -20 10 0 11 7 20 15 20 8 0 15 4 15 9 0 5 -9 7 -19 4 -13 -3 -23 3 -32
19 -7 12 -13 23 -13 23 0 0 8 14 18 31 13 21 25 30 36 27 10 -3 20 -1 23 4 6
9 -20 49 -31 46 -4 0 -6 4 -4 10 2 6 -3 5 -12 -2 -17 -14 -40 -5 -30 11 5 8 1
9 -10 5 -10 -4 -15 -3 -11 3 4 6 -5 10 -20 10 -14 0 -24 4 -21 8 3 5 -1 9 -9
9 -8 0 -15 -6 -15 -13 0 -7 -8 -10 -20 -7 -18 5 -24 15 -21 35 0 4 -6 5 -14 2
-8 -4 -15 -11 -15 -16 0 -6 -13 -23 -29 -39 -26 -25 -28 -29 -15 -48 11 -14
11 -22 3 -27 -7 -4 -9 -3 -5 4 3 6 2 13 -4 17 -6 4 -10 -5 -10 -21 0 -15 -3
-24 -7 -21 -3 4 -20 -2 -38 -13 -18 -11 -36 -16 -40 -12 -5 4 -5 1 -1 -6 4 -7
11 -10 16 -7 5 3 12 0 15 -6 5 -7 -4 -10 -27 -8 -18 2 -40 -1 -48 -6 -8 -5
-22 -8 -31 -7 -20 3 -53 -33 -46 -52 4 -10 1 -13 -8 -10 -8 3 -22 -3 -31 -15
-10 -11 -21 -18 -26 -15 -4 3 -8 0 -8 -5 0 -6 10 -10 23 -8 14 1 22 -3 22 -13
0 -9 -8 -14 -20 -13 -14 1 -27 -10 -43 -38 -20 -34 -36 -44 -64 -40 -4 0 -5
-8 -3 -19 4 -19 -9 -25 -44 -21 -8 2 -10 -2 -6 -10 5 -7 3 -10 -4 -8 -7 3 -12
8 -12 12 2 13 -30 69 -36 63 -3 -3 -7 -20 -8 -38 -2 -18 -3 -39 -4 -45 -1 -7
-6 -13 -12 -13 -7 0 -9 10 -7 25 7 33 -11 37 -38 8 -11 -12 -24 -20 -27 -16
-4 3 -7 1 -7 -6 0 -7 -4 -9 -10 -6 -5 3 -20 1 -32 -6 -13 -6 -20 -8 -16 -4 4
5 3 14 -4 22 -6 7 -8 16 -4 20 3 3 6 1 6 -5 0 -15 36 -16 45 -2 4 6 2 17 -4
24 -6 7 -7 17 -3 22 4 4 -1 2 -10 -5 -10 -7 -18 -10 -18 -5 0 5 -7 -2 -16 -14
-8 -12 -22 -22 -30 -22 -8 0 -14 -6 -14 -14 0 -14 -26 -29 -38 -22 -20 12 -86
15 -99 4 -11 -9 -16 -9 -22 0 -4 7 -25 10 -56 8 -32 -3 -52 0 -57 7 -6 9 -8 9
-8 0 0 -7 -7 -13 -15 -13 -8 0 -15 4 -15 9 0 12 26 32 32 26 3 -3 8 3 11 14 5
19 4 19 -19 4 -13 -8 -24 -19 -24 -24 0 -5 -10 -9 -22 -9 -20 0 -19 3 12 30
19 16 27 27 18 24 -10 -3 -18 -11 -18 -17 0 -6 -3 -8 -6 -4 -6 6 -16 -1 -50
-32 -13 -12 -17 -12 -24 0 -11 16 8 42 23 32 6 -4 7 -1 3 6 -5 7 -1 18 10 25
11 8 13 15 6 20 -6 3 -13 2 -17 -4 -3 -5 -13 -10 -21 -10 -10 0 -2 13 20 36
20 20 33 41 30 45 -6 10 -64 -20 -64 -33 0 -4 -7 -8 -15 -8 -8 0 -15 -4 -15
-10 0 -5 -10 -10 -22 -9 l-23 0 23 16 c12 8 22 19 22 24 0 5 9 18 21 30 11 11
18 27 15 34 -3 10 3 13 22 12 22 -2 27 2 26 20 0 12 3 20 8 17 4 -3 8 1 8 9 0
10 9 14 28 13 18 -1 29 3 29 11 0 7 -9 13 -19 13 -10 0 -18 -5 -18 -11 0 -5
-4 -8 -8 -5 -5 3 -21 -2 -37 -10 -15 -8 -29 -13 -31 -11 -6 6 43 57 55 57 7 0
9 5 5 12 -5 8 -2 9 11 4 11 -4 25 0 37 10 10 10 21 14 25 11 3 -4 13 1 22 11
9 9 27 18 41 18 38 2 40 3 38 16 -2 7 6 13 17 14 32 4 79 15 84 20 3 2 0 9 -7
16 -8 8 -28 3 -76 -17 -36 -15 -66 -32 -66 -36 0 -5 -7 -6 -15 -3 -8 4 -15 1
-15 -5 0 -6 -3 -10 -7 -9 -5 1 -23 -6 -40 -15 -18 -10 -35 -16 -38 -15 -2 2
-13 -4 -24 -13 -19 -18 -51 -31 -62 -26 -4 1 -16 -7 -28 -17 -12 -11 -21 -16
-21 -11 0 4 11 16 25 27 14 11 23 24 20 29 -4 5 1 6 9 3 9 -4 18 0 22 9 3 9
12 13 20 10 8 -3 14 0 14 7 0 6 4 9 9 6 5 -3 11 1 15 9 3 8 13 15 22 15 9 0
23 8 31 18 10 11 12 12 8 2 -5 -11 -3 -11 7 2 10 12 18 14 31 6 13 -7 17 -6
15 4 -2 7 4 13 12 13 8 0 21 4 28 8 6 5 17 5 24 1 7 -4 8 -3 4 4 -7 12 1 15
37 15 9 0 17 3 17 7 0 4 6 7 13 7 6 -1 32 5 57 12 42 13 44 14 21 23 -14 5
-31 6 -39 3 -7 -3 -19 -2 -25 2 -7 4 -34 8 -61 9 -34 0 -51 5 -58 17 -12 23
-20 21 -42 -8z m-16 -49 c0 -11 -19 -15 -25 -6 -3 5 1 10 9 10 9 0 16 -2 16
-4z m975 -96 c3 -5 2 -10 -4 -10 -5 0 -13 5 -16 10 -3 6 -2 10 4 10 5 0 13 -4
16 -10z m-29 -75 c-8 -8 -17 -15 -20 -15 -3 0 -3 7 0 15 4 8 13 15 21 15 12 0
12 -2 -1 -15z m-1304 -28 c-4 -14 -7 -16 -13 -5 -12 19 -11 25 5 25 8 0 11 -8
8 -20z m1493 -27 c-3 -5 -12 -10 -18 -10 -7 0 -6 4 3 10 19 12 23 12 15 0z
m-65 -54 c0 -3 -4 -8 -10 -11 -5 -3 -10 -1 -10 4 0 6 5 11 10 11 6 0 10 -2 10
-4z m-350 -36 c0 -5 -5 -10 -11 -10 -5 0 -7 5 -4 10 3 6 8 10 11 10 2 0 4 -4
4 -10z m34 -24 c-4 -10 0 -13 14 -9 10 2 27 -3 36 -12 16 -16 16 -19 0 -44
-10 -14 -23 -30 -31 -34 -19 -11 -16 -37 5 -38 10 0 12 -3 5 -6 -7 -2 -15 -4
-19 -3 -3 1 -13 -7 -22 -18 -9 -10 -24 -20 -32 -21 -99 -11 -106 -11 -77 0 19
7 26 16 23 26 -3 8 -6 20 -6 26 0 7 -4 7 -9 -2 -5 -8 -7 -21 -4 -30 4 -14 3
-14 -9 -1 -13 16 -63 26 -54 11 3 -4 -1 -8 -9 -8 -21 0 -19 14 4 27 14 7 21 6
24 -3 3 -6 6 -1 6 12 1 13 12 34 27 47 25 24 40 31 30 15 -3 -5 2 -11 12 -13
14 -4 18 1 17 21 -1 16 9 34 24 48 30 25 53 30 45 9z m173 -65 c-3 -33 -1 -37
17 -35 12 1 21 3 21 4 0 1 16 3 36 4 32 2 35 0 37 -27 2 -16 -2 -26 -7 -22 -6
3 -8 12 -5 19 4 10 -5 13 -36 11 -44 -3 -58 -9 -41 -20 6 -3 11 -1 11 5 0 6 5
8 11 4 13 -8 -26 -33 -53 -34 -9 0 -19 -6 -22 -12 -9 -24 2 57 13 83 5 15 7
37 4 49 -4 17 -3 21 6 16 7 -5 10 -23 8 -45z m-33 -8 c-5 -19 -8 -20 -19 -9
-8 8 -11 23 -8 35 5 19 8 20 19 9 8 -7 11 -23 8 -35z m-1134 3 c0 -2 -8 -10
-17 -17 -16 -13 -17 -12 -4 4 13 16 21 21 21 13z m-70 -70 c0 -2 -7 -7 -16
-10 -8 -3 -12 -2 -9 4 6 10 25 14 25 6z m1387 -38 c-3 -8 -6 -5 -6 6 -1 11 2
17 5 13 3 -3 4 -12 1 -19z m-1887 -3 c-7 -9 -15 -13 -17 -11 -7 7 7 26 19 26
6 0 6 -6 -2 -15z m-710 -13 c0 -5 -7 -9 -15 -9 -8 0 -15 4 -15 9 0 4 7 8 15 8
8 0 15 -4 15 -8z m2565 -22 c3 -6 -4 -10 -17 -10 -18 0 -20 2 -8 10 19 12 18
12 25 0z m210 0 c3 -6 -1 -7 -9 -4 -18 7 -21 14 -7 14 6 0 13 -4 16 -10z
m-2695 -5 c0 -6 -46 -26 -67 -31 -7 -1 -13 2 -13 7 0 6 -5 7 -11 4 -14 -10
-69 -13 -74 -5 -2 4 1 7 8 7 16 1 101 14 104 17 5 4 53 5 53 1z m337 -49 c33
-5 16 -11 -33 -11 -30 0 -49 2 -44 3 6 2 8 7 5 12 -3 5 10 6 27 3 18 -3 38 -6
45 -7z m-123 -14 c2 -4 -4 -9 -15 -9 -10 -1 -19 2 -19 8 0 11 27 12 34 1z
m-259 -22 l20 -9 -20 -1 c-11 -1 -29 -4 -40 -6 -35 -9 -76 -4 -69 8 3 4 13 4
23 -2 13 -6 24 -5 37 5 22 16 22 17 49 5z m45 6 c0 -3 -4 -8 -10 -11 -5 -3
-10 -1 -10 4 0 6 5 11 10 11 6 0 10 -2 10 -4z m30 -6 c0 -5 -4 -10 -10 -10 -5
0 -10 5 -10 10 0 6 5 10 10 10 6 0 10 -4 10 -10z m3009 -36 c2 -2 -11 -5 -30
-5 -19 -1 -45 -2 -59 -3 -14 -1 -31 3 -37 8 -8 5 -13 5 -13 -1 0 -5 -7 -10
-16 -10 -15 0 -15 2 1 13 9 7 23 10 31 7 8 -3 14 -1 14 5 0 9 99 -4 109 -14z
m74 19 c-7 -2 -21 -2 -30 0 -10 3 -4 5 12 5 17 0 24 -2 18 -5z m-3133 -64 c0
-6 -4 -7 -10 -4 -5 3 -10 11 -10 16 0 6 5 7 10 4 6 -3 10 -11 10 -16z m-60 1
c0 -5 -10 -10 -22 -9 -22 0 -22 1 -3 9 11 5 21 9 23 9 1 1 2 -3 2 -9z m-55
-10 c3 -5 1 -10 -4 -10 -6 0 -11 5 -11 10 0 6 2 10 4 10 3 0 8 -4 11 -10z
m2804 -121 c-7 -4 -16 -6 -19 -5 -3 2 -13 6 -23 9 -10 4 -16 11 -12 16 3 6 17
6 36 -1 22 -7 27 -13 18 -19z m84 18 c3 -7 -3 -13 -14 -14 -15 -1 -16 1 -6 12
15 18 14 18 20 2z m231 1 c-2 -3 -13 -6 -24 -5 -24 2 -18 13 9 13 11 0 18 -4
15 -8z m60 4 c3 -5 -1 -9 -9 -9 -8 0 -15 4 -15 9 0 4 4 8 9 8 6 0 12 -4 15 -8z
m-3184 -23 c0 -5 -10 -8 -22 -8 -18 1 -19 2 -5 6 9 2 14 9 11 15 -4 7 -2 8 4
4 7 -4 12 -11 12 -17z m3007 7 c-18 -14 -53 -11 -63 5 -3 5 14 9 38 9 38 -1
41 -2 25 -14z m278 -16 c3 -5 -1 -10 -10 -10 -9 0 -13 5 -10 10 3 6 8 10 10
10 2 0 7 -4 10 -10z m-3294 -54 c0 -5 -12 -11 -27 -12 -25 -3 -25 -2 -8 11 20
15 36 15 35 1z m3216 -12 c-3 -3 -12 -4 -19 -1 -8 3 -5 6 6 6 11 1 17 -2 13
-5z m-439 -18 c-7 -8 -15 -12 -17 -11 -5 6 10 25 20 25 5 0 4 -6 -3 -14z
m-2787 -26 c6 0 7 5 3 12 -5 7 -3 8 6 3 8 -5 32 -8 54 -6 66 4 34 -9 -43 -18
-40 -4 -74 -4 -77 1 -3 4 4 8 15 8 12 0 21 6 22 13 0 10 2 10 6 0 2 -7 9 -13
14 -13z m3284 10 c3 -6 -1 -7 -9 -4 -18 7 -21 14 -7 14 6 0 13 -4 16 -10z
m-431 -8 c2 -4 -5 -9 -17 -9 -17 -2 -19 0 -7 7 18 12 18 12 24 2z m-2929 -12
c-3 -5 -12 -10 -18 -10 -7 0 -6 4 3 10 19 12 23 12 15 0z m187 -15 c5 -6 8 -5
8 3 0 6 9 12 20 12 19 0 19 -1 -2 -25 -14 -16 -24 -21 -29 -14 -5 8 -8 8 -13
0 -4 -6 -33 -11 -65 -11 -31 0 -62 -5 -68 -11 -13 -13 -54 -8 -53 6 0 5 6 10
13 10 6 0 32 4 57 9 25 5 54 10 65 12 11 2 21 8 23 13 4 11 35 9 44 -4z m3118
-5 c0 -5 -9 -14 -20 -20 -16 -8 -20 -8 -20 4 0 10 6 13 15 10 8 -4 15 -1 15 5
0 6 2 11 5 11 3 0 5 -4 5 -10z m-290 -21 c0 -5 -4 -9 -10 -9 -5 0 -10 5 -10
11 0 5 -5 7 -12 3 -7 -4 -8 -3 -4 4 7 12 36 5 36 -9z m230 6 c-14 -16 -25 -21
-16 -6 4 5 0 12 -6 14 -7 3 -2 6 11 6 20 1 21 -1 11 -14z m-500 -5 c0 -5 -2
-10 -4 -10 -3 0 -8 5 -11 10 -3 6 -1 10 4 10 6 0 11 -4 11 -10z m310 0 c8 -5
12 -12 9 -15 -8 -8 -39 5 -39 16 0 11 11 11 30 -1z m44 -55 c-7 -16 -24 -21
-24 -6 0 8 7 13 27 20 1 1 0 -6 -3 -14z m-2848 -42 c-2 -2 -11 0 -20 3 -14 5
-15 9 -5 15 12 7 34 -10 25 -18z m118 12 c-4 -8 -8 -15 -10 -15 -2 0 -4 7 -4
15 0 8 4 15 10 15 5 0 7 -7 4 -15z m61 -18 c-22 -12 -46 -1 -39 17 5 12 10 13
30 4 21 -10 23 -13 9 -21z m-595 -35 c0 -5 -7 -9 -15 -9 -8 0 -12 4 -9 9 3 4
9 8 15 8 5 0 9 -4 9 -8z m565 -9 c-1 -10 -8 -17 -14 -15 -6 1 -11 -2 -11 -8 0
-5 -7 -10 -16 -10 -9 0 -12 -5 -8 -12 4 -7 3 -8 -4 -4 -25 15 15 53 41 40 7
-3 3 2 -7 10 -20 16 -19 16 1 16 15 0 20 -5 18 -17z m75 13 c0 -2 -8 -10 -17
-17 -16 -13 -17 -12 -4 4 13 16 21 21 21 13z m-37 -66 c-3 -10 -11 -24 -19
-31 -10 -8 -10 -3 2 20 18 35 24 40 17 11z m50 5 c-3 -9 -8 -14 -10 -11 -3 3
-2 9 2 15 9 16 15 13 8 -4z m871 -9 c-3 -9 -12 -12 -22 -9 -15 6 -9 11 25 22
1 1 0 -5 -3 -13z m161 4 c3 -5 -1 -10 -10 -10 -9 0 -13 5 -10 10 3 6 8 10 10
10 2 0 7 -4 10 -10z m-1367 -12 c-6 -17 -38 -23 -38 -8 0 6 5 8 10 5 6 -3 10
-1 10 4 0 6 5 11 11 11 6 0 9 -6 7 -12z m1272 -8 c0 -5 -5 -10 -11 -10 -5 0
-7 5 -4 10 3 6 8 10 11 10 2 0 4 -4 4 -10z m769 -34 c10 -12 9 -14 -6 -11 -10
1 -17 8 -15 15 2 8 -3 10 -13 7 -9 -4 -15 -1 -15 9 0 11 4 12 18 5 10 -5 24
-17 31 -25z m148 -1 c18 -10 30 -22 27 -26 -7 -12 -64 11 -74 31 -12 23 3 21
47 -5z m-207 1 c0 -3 -4 -8 -10 -11 -5 -3 -10 -1 -10 4 0 6 5 11 10 11 6 0 10
-2 10 -4z m-1675 -43 c-8 -8 -15 -20 -15 -26 0 -7 -4 -6 -9 2 -13 20 5 52 24
45 13 -5 13 -8 0 -21z m892 15 c12 -20 9 -68 -4 -68 -7 0 -13 6 -13 13 0 8 -4
7 -11 -3 -8 -12 -9 -10 -4 8 4 13 2 22 -4 22 -8 0 -7 7 1 20 15 23 24 25 35 8z
m877 4 c3 -5 -1 -9 -9 -9 -8 0 -12 4 -9 9 3 4 7 8 9 8 2 0 6 -4 9 -8z m-791
-20 c-4 -15 13 -16 22 -2 8 13 52 9 80 -7 17 -10 18 -14 6 -25 -8 -7 -11 -8
-8 -2 3 6 -5 10 -19 10 -13 0 -24 -4 -24 -9 0 -5 7 -7 15 -3 8 3 15 1 15 -4 0
-12 -40 -14 -40 -2 0 4 -5 14 -10 22 -9 13 -13 11 -29 -9 -22 -29 -41 -20 -41
20 0 24 4 30 18 27 9 -2 16 -10 15 -16z m202 -7 c11 -2 25 -4 31 -4 7 -1 9
-12 6 -27 -3 -17 -7 -22 -12 -14 -5 8 -19 11 -34 8 -15 -3 -29 -1 -32 3 -3 5
0 9 6 9 6 0 8 5 5 10 -4 6 -14 1 -25 -12 -11 -13 -19 -17 -20 -10 0 6 6 12 13
13 10 0 10 2 0 6 -7 2 -13 11 -13 19 0 9 8 12 28 8 15 -3 36 -7 47 -9z m215
-35 c5 8 11 12 14 10 2 -3 -2 -14 -10 -24 -12 -17 -14 -17 -20 -3 -3 9 -12 13
-21 10 -13 -5 -14 -3 -3 18 l13 23 9 -24 c7 -20 11 -22 18 -10z m94 5 c-4 -8
-11 -15 -16 -15 -6 0 -5 6 2 15 7 8 14 15 16 15 2 0 1 -7 -2 -15z m1041 -15
c3 -5 1 -10 -4 -10 -6 0 -11 5 -11 10 0 6 2 10 4 10 3 0 8 -4 11 -10z m-2484
-33 c-10 -9 -11 -8 -5 6 3 10 9 15 12 12 3 -3 0 -11 -7 -18z m2485 4 c-4 -5 0
-11 6 -14 10 -4 10 -7 0 -18 -11 -12 -14 -12 -22 1 -5 9 -5 19 2 27 12 15 22
18 14 4z m-2326 -35 c0 -3 -4 -8 -10 -11 -5 -3 -10 -1 -10 4 0 6 5 11 10 11 6
0 10 -2 10 -4z m2453 -89 c4 -10 -2 -13 -21 -9 -24 5 -25 6 -7 13 11 4 21 8
21 8 1 1 4 -5 7 -12z m22 -57 c-3 -5 -12 -10 -18 -10 -7 0 -6 4 3 10 19 12 23
12 15 0z m135 -46 c0 -8 -4 -12 -10 -9 -5 3 -10 10 -10 16 0 5 5 9 10 9 6 0
10 -7 10 -16z m-1324 -11 c-2 -9 -8 -18 -15 -19 -6 -1 -7 0 -2 2 6 3 7 12 4
20 -3 8 -1 14 5 14 6 0 9 -8 8 -17z"/>
<path d="M3214 3222 c-15 -10 -25 -42 -14 -42 6 0 10 7 10 16 0 8 5 12 10 9 6
-3 10 1 10 9 0 18 -1 19 -16 8z"/>
<path d="M3405 3110 c3 -5 11 -10 16 -10 6 0 7 5 4 10 -3 6 -11 10 -16 10 -6
0 -7 -4 -4 -10z"/>
<path d="M3126 3651 c-6 -9 35 -24 43 -15 6 5 -18 24 -31 24 -4 0 -9 -4 -12
-9z"/>
<path d="M3480 3652 c0 -22 19 -51 41 -63 18 -9 19 -8 10 8 -20 35 -51 68 -51
55z"/>
<path d="M3755 3610 c-3 -5 -1 -10 4 -10 6 0 11 5 11 10 0 6 -2 10 -4 10 -3 0
-8 -4 -11 -10z"/>
<path d="M2766 3602 c-3 -6 -1 -14 5 -17 14 -9 20 -2 10 14 -6 8 -11 9 -15 3z"/>
<path d="M2246 3591 c-4 -5 -2 -12 3 -15 5 -4 12 -2 15 3 4 5 2 12 -3 15 -5 4
-12 2 -15 -3z"/>
<path d="M3170 3565 c0 -9 6 -12 15 -9 8 4 15 7 15 9 0 2 -7 5 -15 9 -9 3 -15
0 -15 -9z"/>
<path d="M3373 3567 c0 -8 6 -14 13 -14 7 0 10 6 7 14 -3 7 -8 13 -12 13 -4 0
-8 -6 -8 -13z"/>
<path d="M3630 3560 c-13 -8 -12 -10 3 -10 9 0 17 5 17 10 0 12 -1 12 -20 0z"/>
<path d="M2752 3552 c-13 -4 -23 -10 -23 -14 1 -5 1 -12 1 -16 0 -4 9 -8 20
-8 11 0 20 6 20 14 0 7 4 10 10 7 6 -3 7 1 4 9 -3 9 -7 16 -8 15 0 -1 -11 -4
-24 -7z"/>
<path d="M3992 3544 c-13 -6 -20 -14 -14 -18 10 -6 50 19 42 27 -3 2 -16 -2
-28 -9z"/>
<path d="M2696 3525 c-3 -9 0 -15 9 -15 16 0 20 16 6 24 -5 3 -11 -1 -15 -9z"/>
<path d="M3355 3529 c-4 -6 -5 -12 -2 -15 2 -3 7 2 10 11 7 17 1 20 -8 4z"/>
<path d="M3374 3506 c-3 -9 -12 -12 -21 -9 -11 4 -14 2 -9 -6 4 -6 2 -20 -5
-29 -11 -13 -8 -12 9 2 22 19 22 19 22 -2 0 -24 14 -29 26 -10 4 7 3 8 -4 4
-15 -9 -15 9 -2 34 7 13 7 21 0 25 -6 3 -13 0 -16 -9z"/>
<path d="M2623 3496 c0 -16 22 -15 39 2 9 9 9 12 0 12 -7 0 -12 -5 -12 -11 0
-8 -4 -8 -13 0 -10 8 -14 7 -14 -3z"/>
<path d="M3915 3481 c-3 -5 -2 -12 3 -15 5 -3 9 1 9 9 0 17 -3 19 -12 6z"/>
<path d="M2581 3464 c0 -11 3 -14 6 -6 3 7 2 16 -1 19 -3 4 -6 -2 -5 -13z"/>
<path d="M2190 3461 c0 -5 5 -13 10 -16 6 -3 10 -2 10 4 0 5 -4 13 -10 16 -5
3 -10 2 -10 -4z"/>
<path d="M2796 3461 c-4 -5 3 -7 14 -4 23 6 26 13 6 13 -8 0 -17 -4 -20 -9z"/>
<path d="M3948 3463 c7 -3 16 -2 19 1 4 3 -2 6 -13 5 -11 0 -14 -3 -6 -6z"/>
<path d="M3830 3449 c0 -5 5 -7 10 -4 6 3 10 8 10 11 0 2 -4 4 -10 4 -5 0 -10
-5 -10 -11z"/>
<path d="M1775 3440 c-3 -5 -1 -10 4 -10 6 0 11 5 11 10 0 6 -2 10 -4 10 -3 0
-8 -4 -11 -10z"/>
<path d="M2491 3433 c-1 -17 16 -25 25 -12 4 7 3 9 -4 5 -5 -3 -13 0 -15 6 -4
9 -6 10 -6 1z"/>
<path d="M3778 3416 c-20 -15 -23 -26 -8 -26 5 0 14 9 20 20 12 23 11 24 -12
6z"/>
<path d="M2680 3391 c0 -6 5 -13 10 -16 6 -3 10 1 10 9 0 9 -4 16 -10 16 -5 0
-10 -4 -10 -9z"/>
<path d="M2435 3293 c-11 -8 -27 -18 -35 -23 -12 -7 -13 -11 -2 -21 10 -11 12
-10 12 4 0 9 5 17 11 17 12 0 43 29 38 35 -2 2 -13 -3 -24 -12z"/>
<path d="M3030 3265 c-11 -20 -11 -27 0 -40 20 -25 57 -19 62 10 9 43 -42 67
-62 30z"/>
<path d="M1550 3269 c0 -5 5 -7 10 -4 6 3 10 8 10 11 0 2 -4 4 -10 4 -5 0 -10
-5 -10 -11z"/>
<path d="M3625 3140 c3 -5 8 -10 11 -10 2 0 4 5 4 10 0 6 -5 10 -11 10 -5 0
-7 -4 -4 -10z"/>
<path d="M4295 3100 c3 -5 8 -10 11 -10 2 0 4 5 4 10 0 6 -5 10 -11 10 -5 0
-7 -4 -4 -10z"/>
<path d="M2695 3090 c-3 -6 1 -7 9 -4 18 7 21 14 7 14 -6 0 -13 -4 -16 -10z"/>
<path d="M3674 3085 c3 -21 16 -31 16 -12 0 9 -4 18 -9 21 -5 4 -8 -1 -7 -9z"/>
<path d="M500 2596 c0 -2 7 -7 16 -10 8 -3 12 -2 9 4 -6 10 -25 14 -25 6z"/>
<path d="M4085 2480 c-3 -6 1 -7 9 -4 18 7 21 14 7 14 -6 0 -13 -4 -16 -10z"/>
<path d="M4135 2450 c3 -5 8 -10 11 -10 2 0 4 5 4 10 0 6 -5 10 -11 10 -5 0
-7 -4 -4 -10z"/>
<path d="M4172 2438 c5 -15 37 -18 41 -4 1 5 -9 11 -21 13 -16 2 -22 -1 -20
-9z"/>
<path d="M4245 2380 c3 -5 8 -10 11 -10 2 0 4 5 4 10 0 6 -5 10 -11 10 -5 0
-7 -4 -4 -10z"/>
<path d="M3902 2362 c-12 -2 -20 -7 -17 -12 3 -5 16 -7 29 -4 14 2 36 0 50 -6
23 -8 25 -8 15 8 -10 17 -31 20 -77 14z"/>
<path d="M3980 2360 c0 -12 8 -12 35 0 18 8 17 9 -7 9 -16 1 -28 -3 -28 -9z"/>
<path d="M4110 2366 c0 -2 7 -7 16 -10 8 -3 12 -2 9 4 -6 10 -25 14 -25 6z"/>
<path d="M4220 2300 c8 -5 20 -10 25 -10 6 0 3 5 -5 10 -8 5 -19 10 -25 10 -5
0 -3 -5 5 -10z"/>
<path d="M817 2280 c-3 -11 -1 -20 4 -20 5 0 9 9 9 20 0 11 -2 20 -4 20 -2 0
-6 -9 -9 -20z"/>
<path d="M3987 2279 c7 -7 15 -10 18 -7 3 3 -2 9 -12 12 -14 6 -15 5 -6 -5z"/>
<path d="M4275 2280 c-3 -5 -1 -10 4 -10 6 0 11 5 11 10 0 6 -2 10 -4 10 -3 0
-8 -4 -11 -10z"/>
<path d="M3900 2274 c0 -1 8 -8 17 -15 9 -8 14 -9 10 -2 -4 6 -1 13 5 16 7 3
3 4 -9 4 -13 -1 -23 -2 -23 -3z"/>
<path d="M3677 2233 c-4 -3 -7 -11 -7 -17 0 -6 5 -5 12 2 6 6 9 14 7 17 -3 3
-9 2 -12 -2z"/>
<path d="M2810 2220 c0 -5 5 -10 11 -10 5 0 7 5 4 10 -3 6 -8 10 -11 10 -2 0
-4 -4 -4 -10z"/>
<path d="M2930 2220 c0 -5 5 -10 11 -10 5 0 7 5 4 10 -3 6 -8 10 -11 10 -2 0
-4 -4 -4 -10z"/>
<path d="M3703 2215 c-3 -9 -3 -18 -1 -21 3 -3 8 4 11 16 6 23 -1 27 -10 5z"/>
<path d="M2006 2197 c3 -10 9 -15 12 -12 3 3 0 11 -7 18 -10 9 -11 8 -5 -6z"/>
<path d="M3725 2201 c-3 -5 0 -13 6 -17 7 -4 9 -3 5 4 -3 5 0 13 6 15 9 4 10
6 1 6 -6 1 -14 -3 -18 -8z"/>
<path d="M2918 2173 c-2 -4 -3 -14 -2 -20 1 -7 2 -17 3 -23 2 -22 18 -8 17 15
-2 26 -11 41 -18 28z"/>
<path d="M2095 2160 c3 -5 8 -10 11 -10 2 0 4 5 4 10 0 6 -5 10 -11 10 -5 0
-7 -4 -4 -10z"/>
<path d="M2155 2150 c3 -5 8 -10 11 -10 2 0 4 5 4 10 0 6 -5 10 -11 10 -5 0
-7 -4 -4 -10z"/>
<path d="M2279 2150 c-5 -35 3 -86 15 -100 7 -8 16 -22 19 -30 4 -8 5 1 2 20
-5 45 -33 130 -36 110z"/>
<path d="M3610 2146 c0 -2 7 -6 15 -10 8 -3 15 -1 15 4 0 6 -7 10 -15 10 -8 0
-15 -2 -15 -4z"/>
<path d="M3831 2116 l-22 -23 26 -5 c29 -6 45 9 20 18 -12 5 -13 9 -4 20 19
23 4 16 -20 -10z"/>
<path d="M3371 2107 c-13 -21 -12 -21 5 -5 10 10 16 20 13 22 -3 3 -11 -5 -18
-17z"/>
<path d="M2820 2100 c0 -5 5 -10 10 -10 6 0 10 5 10 10 0 6 -4 10 -10 10 -5 0
-10 -4 -10 -10z"/>
<path d="M2873 2095 c0 -8 4 -12 9 -9 4 3 8 9 8 15 0 5 -4 9 -8 9 -5 0 -9 -7
-9 -15z"/>
<path d="M3676 2085 c4 -8 8 -15 10 -15 2 0 4 7 4 15 0 8 -4 15 -10 15 -5 0
-7 -7 -4 -15z"/>
<path d="M3705 2062 c2 -9 4 -19 5 -22 1 -3 2 -8 1 -12 0 -4 7 -4 16 -1 12 5
14 3 8 -7 -5 -9 -4 -11 3 -6 7 4 12 2 12 -4 0 -7 7 -9 16 -6 13 5 14 4 6 -7
-9 -10 -1 -24 32 -60 24 -26 53 -49 65 -52 23 -4 28 10 9 30 -7 7 -29 32 -47
55 -51 62 -60 70 -76 64 -10 -4 -13 0 -10 16 2 13 2 20 -2 17 -3 -4 -14 -2
-23 3 -15 8 -18 6 -15 -8z m102 -78 c-3 -3 -12 -4 -19 -1 -8 3 -5 6 6 6 11 1
17 -2 13 -5z"/>
<path d="M1375 2060 c-8 -13 4 -32 16 -25 12 8 12 35 0 35 -6 0 -13 -4 -16
-10z"/>
<path d="M2388 2042 c5 -9 7 -23 4 -31 -3 -8 0 -11 6 -7 15 9 11 44 -5 51 -10
3 -11 0 -5 -13z"/>
<path d="M3835 2050 c-3 -5 -1 -10 4 -10 6 0 11 5 11 10 0 6 -2 10 -4 10 -3 0
-8 -4 -11 -10z"/>
<path d="M2120 2035 c-11 -13 -10 -14 4 -9 9 3 16 10 16 15 0 13 -6 11 -20 -6z"/>
<path d="M3106 2024 c-9 -8 -16 -19 -16 -24 0 -17 -34 -20 -56 -5 -38 25 -41
17 -4 -14 30 -25 33 -30 21 -45 -13 -15 -15 -15 -32 0 -11 10 -19 12 -19 6 0
-11 38 -51 49 -53 3 0 15 -2 25 -4 11 -2 28 1 38 6 27 15 22 -6 -7 -29 -14
-11 -25 -23 -25 -26 0 -7 49 15 51 23 1 3 3 20 5 38 2 31 2 31 -17 12 -21 -21
-44 -26 -33 -6 6 9 4 9 -8 -1 -10 -8 -19 -9 -22 -3 -3 5 15 19 41 32 27 12 51
27 55 33 11 15 10 64 -1 70 -5 3 -8 -2 -7 -12 0 -9 -5 -16 -11 -14 -7 1 -13
-3 -13 -10 0 -6 -3 -9 -6 -6 -3 4 -1 16 6 27 13 25 7 27 -14 5z"/>
<path d="M2201 2014 c0 -11 3 -14 6 -6 3 7 2 16 -1 19 -3 4 -6 -2 -5 -13z"/>
<path d="M2810 2009 c0 -19 -2 -21 -10 -9 -7 11 -10 11 -10 2 0 -7 8 -22 19
-33 19 -20 18 -60 -1 -56 -6 1 -13 -4 -16 -12 -2 -8 0 -11 6 -7 6 3 13 2 17
-3 3 -6 13 -7 22 -4 11 4 14 2 9 -5 -4 -7 6 -18 24 -27 36 -19 37 -16 6 20
-21 24 -40 73 -52 133 -5 25 -14 26 -14 1z"/>
<path d="M3875 2010 c10 -11 20 -20 23 -20 3 0 -3 9 -13 20 -10 11 -20 20 -23
20 -3 0 3 -9 13 -20z"/>
<path d="M2534 1982 c1 -19 5 -28 13 -25 10 4 10 10 1 26 -15 31 -15 31 -14
-1z"/>
<path d="M2946 2001 c-3 -4 6 -19 21 -32 25 -23 25 -23 12 -1 -8 12 -17 22
-22 22 -4 0 -5 5 -2 10 3 6 4 10 1 10 -3 0 -7 -4 -10 -9z"/>
<path d="M1431 1984 c0 -11 3 -14 6 -6 3 7 2 16 -1 19 -3 4 -6 -2 -5 -13z"/>
<path d="M3735 1990 c-3 -5 -1 -10 4 -10 6 0 11 5 11 10 0 6 -2 10 -4 10 -3 0
-8 -4 -11 -10z"/>
<path d="M2621 1969 c0 -15 7 -33 17 -40 15 -12 16 -12 5 1 -6 8 -13 26 -16
40 l-4 25 -2 -26z"/>
<path d="M1650 1948 l-23 -33 28 27 c16 15 26 30 23 33 -3 4 -16 -9 -28 -27z"/>
<path d="M3691 1951 c8 -13 19 -32 25 -43 6 -11 15 -19 19 -18 4 1 11 -4 16
-12 7 -11 10 -10 21 1 8 9 9 11 1 7 -6 -3 -14 -2 -18 4 -4 6 -11 7 -17 4 -7
-5 -9 -2 -7 7 3 8 -8 28 -24 44 -24 25 -27 26 -16 6z"/>
<path d="M3900 1967 c0 -13 56 -62 73 -63 14 -2 15 1 6 12 -7 8 -14 12 -17 9
-3 -3 -18 7 -34 22 -15 15 -28 24 -28 20z"/>
<path d="M3772 1926 c7 -8 15 -12 17 -11 5 6 -10 25 -20 25 -5 0 -4 -6 3 -14z"/>
<path d="M3581 1904 c0 -11 3 -14 6 -6 3 7 2 16 -1 19 -3 4 -6 -2 -5 -13z"/>
<path d="M1893 1903 c4 -6 2 -13 -4 -15 -7 -2 -5 -9 5 -17 14 -12 16 -11 13 7
-2 12 -7 25 -12 29 -4 5 -5 3 -2 -4z"/>
<path d="M3810 1901 c0 -6 4 -13 10 -16 6 -3 7 1 4 9 -7 18 -14 21 -14 7z"/>
<path d="M3000 1865 c0 -8 4 -15 10 -15 5 0 7 7 4 15 -4 8 -8 15 -10 15 -2 0
-4 -7 -4 -15z"/>
<path d="M1866 1849 c-9 -11 -16 -23 -16 -28 0 -5 -6 -14 -14 -21 -19 -15 -11
-34 20 -55 21 -13 31 -14 64 -4 22 7 40 17 41 23 5 53 0 61 -57 93 -17 9 -24
8 -38 -8z"/>
<path d="M3026 1815 c10 -8 23 -15 28 -15 6 0 1 7 -10 15 -10 8 -23 15 -28 15
-6 0 -1 -7 10 -15z"/>
<path d="M1598 1759 c-7 -4 -16 -5 -20 -3 -15 9 -47 -7 -53 -27 -5 -14 -12
-18 -30 -13 -30 7 -61 -25 -70 -73 -7 -40 -2 -49 37 -58 41 -10 68 22 62 75
-5 38 -4 40 16 30 61 -31 59 -30 54 -15 -4 8 1 18 10 21 11 4 14 13 11 24 -4
12 2 24 16 34 l22 15 -22 -2 c-12 -1 -27 -5 -33 -8z"/>
<path d="M1317 1633 c-4 -3 -7 -11 -7 -17 0 -6 5 -5 12 2 6 6 9 14 7 17 -3 3
-9 2 -12 -2z"/>
<path d="M1613 1569 c-13 -5 -23 -17 -23 -28 0 -26 30 -43 53 -30 35 20 8 73
-30 58z"/>
<path d="M1010 1524 c0 -8 5 -12 10 -9 6 3 10 10 10 16 0 5 -4 9 -10 9 -5 0
-10 -7 -10 -16z"/>
<path d="M1090 1524 c0 -17 22 -14 28 4 2 7 -3 12 -12 12 -9 0 -16 -7 -16 -16z"/>
<path d="M1323 1495 c-31 -22 -35 -52 -10 -70 27 -19 32 -19 51 1 21 20 20 36
-2 62 -17 19 -21 20 -39 7z"/>
<path d="M1495 1490 c3 -5 8 -10 11 -10 2 0 4 5 4 10 0 6 -5 10 -11 10 -5 0
-7 -4 -4 -10z"/>
<path d="M855 1470 c-3 -5 -1 -10 4 -10 6 0 11 5 11 10 0 6 -2 10 -4 10 -3 0
-8 -4 -11 -10z"/>
<path d="M902 1448 c5 -15 28 -23 28 -10 0 5 -7 13 -16 16 -10 4 -14 1 -12 -6z"/>
<path d="M1100 1275 c-17 -20 -5 -45 20 -45 11 0 23 7 26 15 6 15 -11 45 -26
45 -4 0 -13 -7 -20 -15z"/>
<path d="M966 1214 c-6 -16 9 -17 39 -4 22 9 20 11 -12 15 -12 1 -24 -4 -27
-11z"/>
<path d="M871 1167 c-9 -11 -8 -17 4 -27 12 -10 16 -9 21 5 9 23 -10 40 -25
22z"/>
<path d="M930 1146 c0 -9 7 -16 16 -16 17 0 14 22 -4 28 -7 2 -12 -3 -12 -12z"/>
</g>
</svg>
